<?xml version="1.0" encoding="UTF-8" standalone="no"?>
<svg
   xmlns:dc="http://purl.org/dc/elements/1.1/"
   xmlns:cc="http://creativecommons.org/ns#"
   xmlns:rdf="http://www.w3.org/1999/02/22-rdf-syntax-ns#"
   xmlns:svg="http://www.w3.org/2000/svg"
   xmlns="http://www.w3.org/2000/svg"
   width="148.69585mm"
   height="148.69585mm"
   viewBox="0 0 148.69585 148.69585"
   version="1.1"
   id="svg8">
  <defs
     id="defs2" />
  <metadata
     id="metadata5">
    <rdf:RDF>
      <cc:Work
         rdf:about="">
        <dc:format>image/svg+xml</dc:format>
        <dc:type
           rdf:resource="http://purl.org/dc/dcmitype/StillImage" />
        <dc:title></dc:title>
      </cc:Work>
    </rdf:RDF>
  </metadata>
  <g
     id="layer1"
     transform="translate(-32.99731,-76.086603)">
    <g
       id="g108"
       transform="translate(9.0714258,3.0238099)">
      <path
         style="fill:#333333;fill-opacity:1;stroke:none;stroke-width:0.265;stroke-miterlimit:4;stroke-dasharray:none"
         d="M 23.925884,147.41071 V 73.062793 h 74.347922 74.347924 v 74.347917 74.34793 H 98.273806 23.925884 Z m 43.127087,39.56643 -2.226845,-2.69013 H 56.73422 v -73.65338 h 83.34376 v 73.65338 H 77.531794 L 102.1574,145.21418 H 73.138388 l 1.454512,2.52456 h 23.385853 l -24.840365,39.2384 H 142.98839 V 107.9878 H 53.647415 v 78.98934 c 0.238304,0.23831 13.405556,0 13.405556,0 z m 33.623559,-12.55098 6.03596,-9.9455 -1.27491,-1.1915 -5.513236,9.21293 -5.321674,-9.02144 -1.42362,1.10183 5.908416,9.84368 v 6.05709 l 0.794532,1.1 0.794532,-1.1 z m 15.96937,0 2.10445,3.49218 2.10444,3.65246 0.65484,-0.65485 0.65485,-0.65485 -1.89117,-3.22385 c -1.04014,-1.77312 -1.89117,-3.26325 -1.89117,-3.31141 0,-0.0482 0.48793,-0.36178 1.08428,-0.69695 1.57079,-0.88284 2.3553,-2.36132 2.3553,-4.43877 0,-2.13238 -0.72757,-3.49994 -2.3784,-4.47049 -1.13684,-0.66836 -1.39684,-0.79267 -5.49295,-0.83502 h -4.29948 v 16.51234 l 1.71979,1.77566 0.147,-7.14645 z m -5.14293,-9.72643 h 2.86767 c 2.17387,0 3.11284,0.20447 3.87836,0.60174 2.45127,1.27209 2.65067,4.84506 0.36151,6.47773 -0.79372,0.5661 -1.22434,0.82566 -3.99868,0.82566 h -3.10886 z m 24.50725,15.25474 h -8.36766 v -6.14375 l 6.53064,0.006 1,-0.77739 -1,-0.7774 -6.53064,-0.0388 v -7.35 h 8.10308 l 1.52092,-1.58852 h -11.47609 v 9.12914 9.12813 h 11.74067 z"
         id="path110" />
    </g>
  </g>
</svg>
